# xmcd
#
# Track frame offsets:
#	150
#	14881
#	28450
#	48259
#	66205
#	84143
#	99107
#	112985
#	129203
#	143818
#	161707
#	178938
#
# Disc length: 2562 seconds
#
# Revision: 0
# Processed by: cddbd v1.5.1PL0 Copyright (c) Steve Scherf et al.
# Submitted via: EasyCDDAExtractor 7.7.1.2
#
DISCID=9c0a000c
DTITLE=Lonestar - Coming Home
DYEAR=2005
DGENRE=Country
TTITLE0=You're Like Comin' Home
TTITLE1=Doghouse
TTITLE2=I Am A Man
TTITLE3=I'll Die Tryin'
TTITLE4=Wild
TTITLE5=Noise
TTITLE6=Little Town
TTITLE7=I Never Needed You
TTITLE8=What's Wrong With That
TTITLE9=Two Bottles Of Beer
TTITLE10=I Just Want To Love You
TTITLE11=When I Go Home Again
EXTD=
EXTT0=
EXTT1=
EXTT2=
EXTT3=
EXTT4=
EXTT5=
EXTT6=
EXTT7=
EXTT8=
EXTT9=
EXTT10=
EXTT11=
PLAYORDER=
